<svg t="1682947684862" class="icon" viewBox="0 0 1024 1024" version="1.1" xmlns="http://www.w3.org/2000/svg" p-id="6509" width="48" height="48"><path d="M763.249778 455.111111c100.807111 0 182.528 79.416889 182.528 177.379556l-0.142222 6.257777c-2.218667 58.595556-35.555556 124.529778-90.311112 191.374223a770.446222 770.446222 0 0 1-64.341333 69.148444l-11.036444 10.325333-10.069334 9.016889c-2.929778 2.588444-5.205333 4.494222-6.627555 5.688889l-6.599111-5.688889-10.069334-9.016889a770.446222 770.446222 0 0 1-75.377777-79.473777c-54.755556-66.844444-88.092444-132.750222-90.339556-191.374223l-0.113778-6.257777c0-97.962667 81.692444-177.379556 182.499556-177.379556z m78.222222-312.888889a78.222222 78.222222 0 0 1 78.222222 78.222222v182.528h-78.222222V220.444444H163.555556V768h365.027555v78.222222H163.555556A78.222222 78.222222 0 0 1 85.333333 768V220.444444A78.222222 78.222222 0 0 1 163.555556 142.222222h677.916444z m-78.222222 391.111111c-56.263111 0-101.404444 42.126222-104.163556 94.094223l-0.113778 5.063111 0.056889 3.242666c1.422222 36.892444 25.742222 87.523556 72.675556 144.839111 6.627556 8.078222 13.539556 16.071111 20.679111 23.978667l10.865778 11.804445 10.894222-11.804445c7.111111-7.907556 14.08-15.900444 20.650667-23.978667 44.885333-54.812444 69.12-103.537778 72.362666-139.946666l0.341334-4.892445 0.056889-3.242666c0-54.243556-46.193778-99.157333-104.305778-99.157334z m0 52.138667a52.138667 52.138667 0 1 1 0 104.305778 52.138667 52.138667 0 0 1 0-104.305778zM673.848889 142.222222l64.853333 43.719111L293.262222 846.222222l-64.853333-43.719111L673.848889 142.222222zM546.986667 604.956444l-43.747556 64.853334L78.791111 383.488l43.747556-64.853333L546.986667 604.956444z" fill="#bfbfbf" p-id="6510"></path></svg>